<?xml version="1.0" standalone="no"?>
<!DOCTYPE svg PUBLIC "-//W3C//DTD SVG 20010904//EN"
 "http://www.w3.org/TR/2001/REC-SVG-20010904/DTD/svg10.dtd">
<svg version="1.0" xmlns="http://www.w3.org/2000/svg"
 width="533.000000pt" height="533.000000pt" viewBox="0 0 533.000000 533.000000"
 preserveAspectRatio="xMidYMid meet">
<metadata>
Created by potrace 1.14, written by Peter Selinger 2001-2017
</metadata>
<g transform="translate(0.000000,533.000000) scale(0.100000,-0.100000)"
fill="#000000" stroke="none">
<path d="M3013 4658 c-21 -11 -43 -28 -50 -37 -50 -62 -88 -230 -88 -386 l0
-84 -110 -1 c-129 -1 -207 -8 -320 -29 l-46 -9 -19 42 c-10 22 -32 82 -47 131
-33 107 -48 114 -81 35 -23 -56 -24 -97 -6 -207 6 -38 4 -43 -12 -43 -30 0
-257 -76 -296 -100 l-35 -20 -25 32 c-14 18 -44 66 -68 106 -47 80 -51 85 -74
76 -12 -5 -16 -20 -16 -68 0 -56 10 -88 56 -192 3 -7 -51 -46 -123 -89 -70
-43 -145 -91 -166 -108 l-38 -29 -38 26 c-21 15 -68 56 -104 93 -58 57 -69 64
-83 52 -35 -29 5 -140 79 -216 22 -24 39 -45 36 -47 -2 -2 -75 -77 -162 -167
l-159 -162 -41 14 c-43 14 -189 104 -195 120 -5 12 -39 11 -47 -1 -17 -28 55
-153 127 -222 15 -14 28 -30 28 -35 0 -14 -77 -60 -195 -118 -109 -53 -183
-77 -280 -91 -53 -7 -112 -33 -139 -59 -26 -26 -38 -89 -24 -122 29 -66 69
-84 237 -108 97 -14 304 -95 375 -148 18 -13 17 -16 -24 -53 -23 -21 -51 -56
-62 -78 -19 -38 -30 -128 -16 -141 4 -4 19 6 35 21 63 63 188 164 204 164 15
0 186 -131 262 -201 l40 -36 -40 -54 c-63 -86 -92 -163 -76 -205 6 -16 33 -19
33 -4 0 13 101 114 152 154 l37 28 63 -54 c35 -29 100 -78 145 -108 58 -39 81
-59 77 -70 -47 -119 -58 -208 -30 -245 14 -19 15 -18 33 14 52 94 97 167 110
177 11 9 23 7 56 -11 23 -13 68 -31 99 -42 l58 -18 1 -55 c0 -30 0 -79 -1
-107 -1 -45 1 -53 17 -54 121 -7 125 -5 123 65 -1 28 -1 65 -1 82 l1 32 573
-2 572 -1 0 -87 c0 -81 1 -88 20 -89 24 -1 95 -1 113 0 9 1 12 27 12 95 l0 94
43 7 c23 4 71 16 105 27 59 18 65 18 82 3 16 -15 81 -137 94 -177 3 -11 11
-15 20 -12 36 14 42 117 11 207 -9 27 -14 54 -12 60 3 7 22 21 43 32 50 25
211 136 246 169 41 40 28 47 167 -89 96 -94 110 -98 106 -32 -2 47 -38 119
-89 183 -25 31 -46 60 -46 64 0 13 221 207 290 255 l39 27 33 -23 c40 -28 99
-81 149 -133 53 -56 73 -33 49 56 -10 33 -32 70 -98 157 l-23 30 40 26 c52 35
182 83 256 95 91 15 162 38 190 63 53 47 37 150 -30 189 -16 9 -61 24 -100 32
-145 32 -305 87 -305 104 0 3 18 28 40 57 44 58 70 112 70 150 0 33 -17 32
-60 -5 -19 -17 -65 -51 -103 -76 -78 -51 -70 -53 -182 32 -109 82 -131 105
-113 118 23 17 83 116 101 166 33 95 7 105 -80 29 -32 -28 -77 -65 -101 -81
-51 -35 -33 -45 -174 96 -98 97 -95 88 -52 183 43 96 55 233 20 233 -7 0 -33
-25 -57 -56 -59 -76 -111 -134 -119 -134 -3 0 -42 28 -85 61 -44 34 -115 84
-158 112 -72 46 -78 53 -72 76 42 163 41 268 -2 249 -4 -2 -38 -49 -75 -105
l-67 -102 -58 24 c-32 13 -75 26 -96 30 -24 5 -37 13 -38 24 -1 9 -2 88 -3
176 -3 207 -13 292 -38 333 -39 63 -128 86 -195 50z m118 -120 c6 -10 12 -94
14 -186 7 -290 15 -506 19 -532 2 -14 7 -52 11 -85 4 -32 8 -66 10 -75 1 -8 6
-37 9 -65 4 -27 16 -88 26 -135 11 -47 22 -97 24 -112 11 -65 9 -418 -1 -417
-5 0 -25 20 -45 43 l-37 42 24 49 c28 54 32 100 11 108 -8 3 -21 -4 -30 -18
-18 -28 -67 -75 -78 -75 -4 0 -32 19 -63 42 l-56 42 7 50 c16 121 -12 157 -56
71 -34 -66 -39 -68 -112 -50 -70 19 -154 23 -211 12 l-38 -8 -27 60 c-15 34
-32 61 -39 61 -28 0 -35 -44 -21 -144 2 -14 -11 -26 -47 -46 -27 -14 -67 -36
-88 -48 l-38 -22 -46 45 c-25 25 -53 45 -62 43 -26 -5 -24 -46 4 -94 l27 -46
-48 -44 c-27 -24 -51 -43 -54 -44 -3 0 -5 57 -5 128 0 127 0 127 -38 206 -85
173 -84 231 2 253 38 9 91 -25 133 -87 60 -86 86 -110 119 -110 55 0 52 17
-31 170 -16 30 -30 67 -30 82 0 58 80 112 140 93 30 -9 75 -56 98 -101 25 -49
91 -121 118 -128 11 -4 29 0 39 8 18 13 17 16 -20 77 -32 53 -38 72 -37 113 2
56 20 89 62 111 26 13 34 14 62 2 45 -19 98 -81 143 -166 44 -83 87 -125 119
-115 31 10 35 23 21 58 -29 70 -53 617 -34 766 4 30 9 78 12 105 7 76 27 132
51 143 27 12 73 -4 87 -30z m-256 -558 c1 -14 5 -65 9 -115 l8 -90 -44 44
c-56 56 -88 72 -146 73 -77 0 -125 -25 -156 -83 -15 -27 -30 -49 -33 -49 -3 0
-21 10 -40 21 -26 16 -50 22 -95 21 -83 0 -121 -27 -202 -146 -11 -16 -16 -17
-47 -6 -67 24 -153 -21 -196 -103 -21 -42 -13 -131 22 -227 59 -165 61 -198
42 -680 -4 -93 13 -216 43 -298 26 -74 95 -188 148 -244 l45 -48 -66 0 -66 0
0 -82 c0 -131 3 -120 -33 -113 -48 9 -189 65 -220 86 -14 11 -29 19 -32 19
-10 0 -202 130 -284 193 -40 30 -108 87 -150 125 -42 39 -113 97 -157 131 -44
33 -84 64 -90 69 -58 48 -271 177 -354 214 -36 16 -84 37 -106 47 -22 10 -57
24 -78 31 -21 6 -36 14 -33 17 2 3 48 24 101 48 105 48 223 118 281 168 37 32
116 111 310 309 103 105 116 117 239 224 109 95 303 224 410 273 22 10 69 32
105 48 87 40 228 88 320 108 86 19 111 22 235 31 50 4 91 8 93 9 1 1 51 2 109
1 107 -1 107 -1 108 -26z m545 -118 c129 -71 172 -99 290 -191 86 -67 282
-257 400 -387 67 -74 285 -255 391 -324 86 -57 218 -126 314 -165 l40 -16
-120 -62 c-122 -63 -209 -121 -345 -231 -41 -34 -77 -63 -80 -66 -3 -3 -30
-25 -60 -50 -30 -25 -80 -68 -110 -97 -93 -87 -144 -134 -173 -156 -16 -12
-47 -37 -70 -56 -124 -100 -298 -186 -440 -216 -124 -27 -117 -32 -117 95 l0
110 -64 0 -64 0 39 90 c49 114 77 213 85 304 3 39 8 74 10 77 6 11 18 342 18
524 0 199 -9 309 -34 420 -26 110 -59 307 -66 394 l-7 72 59 -22 c33 -12 79
-33 104 -47z m-638 -727 c98 -21 190 -81 338 -222 36 -34 80 -75 99 -91 l35
-30 -61 -69 c-206 -230 -313 -297 -480 -295 -186 2 -357 101 -562 327 l-44 48
40 36 c22 20 64 56 93 81 29 25 62 53 74 64 76 67 225 141 310 153 23 3 42 7
44 8 5 4 76 -2 114 -10z m-518 -610 c72 -59 78 -66 72 -89 -26 -109 -14 -127
45 -66 30 31 44 39 53 31 21 -18 138 -59 188 -66 49 -7 52 -11 63 -75 6 -34
21 -60 35 -60 4 0 15 26 24 58 10 31 19 62 21 69 2 6 30 18 62 27 32 9 89 31
126 50 76 38 68 40 124 -27 35 -41 46 -35 40 24 -3 28 -11 57 -18 65 -10 12
-1 25 50 76 33 34 61 65 61 70 0 5 4 7 8 4 10 -6 -2 -119 -23 -206 -20 -84
-68 -213 -108 -292 l-32 -63 -326 -3 -326 -2 -49 53 c-69 74 -114 126 -114
130 0 2 -22 41 -49 87 -54 91 -71 146 -75 242 -4 91 0 95 53 46 25 -24 68 -61
95 -83z m936 -642 l0 -43 -345 -1 c-190 0 -401 0 -469 -1 -68 0 -129 3 -135 6
-10 6 -13 60 -5 77 2 3 217 6 479 6 l475 0 0 -44z"/>
<path d="M2613 3086 c-60 -19 -108 -52 -146 -99 -55 -69 -71 -113 -72 -197 0
-65 4 -84 32 -141 113 -228 436 -230 553 -3 54 104 44 231 -26 326 -75 104
-218 152 -341 114z m196 -85 c154 -79 179 -289 47 -395 -50 -41 -94 -56 -158
-56 -155 0 -271 162 -221 310 47 140 204 206 332 141z"/>
<path d="M2664 2922 c-35 -12 -74 -48 -88 -84 -23 -57 -11 -110 34 -153 40
-38 120 -46 167 -16 111 70 72 239 -58 255 -19 2 -43 1 -55 -2z m86 -67 c6 -4
17 -19 25 -35 26 -51 -12 -110 -71 -110 -34 0 -73 27 -75 53 0 6 -2 21 -4 31
-2 11 8 31 24 47 22 22 35 27 60 24 17 -2 36 -7 41 -10z"/>
<path d="M2540 1180 c-7 -17 -24 -40 -38 -51 -19 -15 -23 -22 -14 -31 9 -9 20
-4 45 20 21 20 43 32 60 32 31 0 32 -2 12 -40 -12 -24 -37 -47 -94 -87 -3 -2
0 -8 6 -14 28 -28 132 79 136 139 2 25 -1 27 -38 27 -28 0 -40 4 -40 14 0 27
-22 22 -35 -9z"/>
<path d="M2796 1193 c-3 -7 -17 -13 -31 -13 -16 0 -25 -6 -25 -15 0 -8 7 -15
15 -15 21 0 19 -12 -6 -39 -16 -17 -18 -26 -10 -34 8 -8 17 -5 34 11 13 12 31
22 41 22 14 0 11 -6 -14 -30 -17 -16 -30 -35 -28 -42 12 -36 129 -50 136 -16
2 13 -5 15 -41 11 -44 -5 -65 6 -52 28 5 7 14 4 26 -7 18 -16 19 -16 19 9 0
20 6 27 31 32 37 8 33 29 -7 32 -45 3 -73 9 -80 16 -8 7 -7 8 41 12 17 1 36 3
43 4 8 0 12 7 10 13 -3 8 -19 12 -41 10 -29 -3 -36 0 -32 11 4 8 0 14 -9 14
-8 0 -17 -6 -20 -14z"/>
<path d="M2993 1160 c-17 -40 -19 -53 -9 -62 6 -7 11 -34 11 -60 -1 -33 3 -48
12 -48 11 0 20 65 14 103 0 4 4 7 9 7 6 0 10 -16 10 -36 0 -34 2 -36 25 -30
20 5 25 3 25 -14 0 -17 7 -20 44 -20 45 0 68 22 46 44 -13 13 -13 56 0 56 17
0 11 21 -12 41 l-23 18 23 1 c24 0 30 15 9 23 -7 3 -25 3 -41 2 -20 -3 -26 0
-22 11 7 17 -20 19 -31 2 -4 -7 -15 -13 -23 -13 -8 0 -19 6 -23 13 -13 20 -21
14 -44 -38z m57 -15 c-7 -8 -16 -15 -21 -15 -5 0 -9 7 -9 15 0 9 9 15 21 15
18 0 19 -2 9 -15z m74 -1 c6 -14 4 -15 -10 -4 -13 12 -17 11 -25 -1 -5 -8 -9
-9 -9 -3 0 27 34 33 44 8z m36 -114 c0 -5 -9 -10 -19 -10 -11 0 -23 5 -26 10
-4 6 5 10 19 10 14 0 26 -4 26 -10z"/>
<path d="M3292 1198 c-7 -7 -12 -17 -12 -24 0 -7 -8 -10 -20 -7 -14 4 -20 0
-20 -11 0 -9 8 -16 20 -16 18 0 18 -2 4 -47 -9 -27 -18 -56 -21 -65 -8 -28 22
-22 35 6 6 13 14 41 18 61 5 28 13 39 38 49 l31 14 -28 11 c-16 6 -26 15 -22
20 9 15 -10 22 -23 9z"/>
<path d="M3563 1203 c-7 -3 -13 -11 -13 -18 0 -8 -11 -15 -25 -17 -31 -4 -34
-22 -6 -26 20 -3 20 -5 6 -38 -13 -31 -13 -36 0 -41 9 -3 21 -1 28 5 25 21 87
18 87 -3 0 -20 -36 -33 -77 -28 -25 4 -33 1 -33 -11 0 -22 82 -26 120 -6 53
29 16 95 -51 88 -21 -2 -39 -1 -39 2 1 18 20 29 53 32 21 1 43 8 49 15 12 15
8 16 -44 13 -29 -1 -37 3 -40 18 -2 10 -9 17 -15 15z"/>
<path d="M1500 1173 c0 -11 26 -18 52 -14 4 0 5 -5 2 -13 -9 -23 11 -26 42 -6
46 31 37 43 -33 45 -47 1 -63 -2 -63 -12z"/>
<path d="M1770 1177 c-53 -26 -72 -119 -30 -145 37 -23 71 13 85 91 8 41 16
45 39 21 34 -33 8 -104 -38 -104 -23 0 -15 -24 10 -27 27 -4 62 27 73 63 23
80 -60 140 -139 101z m25 -61 c-7 -37 -28 -62 -44 -52 -5 3 -8 14 -6 24 2 9 4
20 4 25 1 11 42 49 47 44 3 -3 2 -21 -1 -41z"/>
<path d="M3810 1183 c-66 -24 -90 -119 -39 -151 32 -20 56 1 76 66 9 31 18 59
20 61 8 11 43 -35 43 -56 0 -26 -32 -63 -56 -63 -20 0 -13 -24 9 -28 24 -5 65
29 72 61 18 78 -49 138 -125 110z m13 -55 c-8 -45 -22 -70 -36 -65 -21 6 -19
42 3 70 29 36 41 34 33 -5z"/>
<path d="M1972 1168 c3 -9 29 -14 73 -15 37 -1 69 -4 71 -6 2 -1 -8 -15 -22
-30 -23 -25 -27 -26 -47 -12 -23 16 -47 20 -47 8 1 -5 21 -30 46 -57 33 -36
48 -46 56 -38 8 8 8 15 -1 26 -10 12 -5 24 28 67 22 29 38 56 35 61 -3 4 -48
8 -100 8 -72 0 -95 -3 -92 -12z"/>
<path d="M3347 1132 c-17 -3 -21 -24 -4 -23 4 1 25 1 47 1 31 0 38 3 34 15 -6
14 -31 17 -77 7z"/>
<path d="M2220 1105 c0 -8 7 -15 15 -15 8 -1 49 -1 90 -1 41 0 80 0 85 1 6 0
10 7 10 15 0 12 -18 15 -100 15 -82 0 -100 -3 -100 -15z"/>
<path d="M1490 1079 c-20 -46 3 -64 85 -65 55 0 65 3 65 17 0 15 -7 17 -50 12
-56 -6 -89 9 -69 33 11 13 5 34 -10 34 -5 0 -14 -14 -21 -31z"/>
<path d="M3320 1069 c-19 -34 13 -61 69 -57 59 4 59 22 1 28 -35 4 -44 9 -42
22 4 26 -16 31 -28 7z"/>
<path d="M1650 878 c0 -13 -7 -18 -25 -18 -30 0 -33 -20 -5 -27 11 -3 20 -12
20 -20 0 -10 -7 -14 -20 -10 -27 7 -26 -20 1 -28 11 -4 18 -13 15 -20 -9 -25
23 -55 60 -55 64 0 92 29 74 75 -8 22 -16 25 -55 25 -33 0 -45 4 -45 15 0 10
10 15 30 15 20 0 30 5 30 15 0 11 -7 14 -25 11 -21 -4 -25 -1 -25 18 0 13 -6
23 -15 23 -8 0 -15 -9 -15 -19z m93 -100 c7 -21 -4 -47 -22 -50 -27 -6 -49 3
-54 23 -4 15 0 19 24 19 16 0 29 5 29 10 0 14 18 12 23 -2z"/>
<path d="M1897 894 c-3 -3 -1 -21 5 -40 8 -32 7 -38 -17 -60 -53 -49 -12 -96
80 -92 37 2 51 7 53 20 3 14 -4 16 -50 12 -67 -6 -90 6 -64 35 10 11 35 25 55
31 20 7 42 13 48 15 7 3 10 11 7 19 -4 12 -12 12 -36 4 -32 -11 -48 -1 -48 33
0 17 -23 32 -33 23z"/>
<path d="M2406 871 c3 -14 7 -31 9 -37 2 -7 -7 -22 -21 -35 -34 -32 -32 -73 5
-89 41 -17 125 -9 129 12 3 14 -5 15 -50 12 -99 -8 -106 38 -9 66 36 10 51 20
51 32 0 15 -4 16 -27 7 -35 -13 -49 -6 -56 28 -3 18 -12 30 -21 30 -11 0 -14
-7 -10 -26z"/>
<path d="M2643 888 c-14 -17 -17 -128 -4 -128 6 0 19 20 29 44 20 45 56 66 66
39 22 -57 -16 -122 -66 -114 -9 1 -11 -23 -2 -32 10 -9 60 13 82 36 25 26 33
71 19 110 -13 38 -37 49 -71 31 -36 -18 -39 -18 -31 6 7 22 -7 27 -22 8z"/>
<path d="M2920 881 c0 -16 -6 -21 -25 -21 -30 0 -33 -20 -5 -27 28 -7 26 -35
-2 -31 -11 2 -23 -3 -25 -9 -3 -7 2 -13 10 -13 9 0 24 -17 34 -37 16 -34 23
-38 59 -41 52 -4 76 17 72 62 -3 29 -5 31 -50 34 -52 3 -68 28 -23 34 29 3 35
23 8 23 -10 0 -20 9 -23 19 -8 27 -30 32 -30 7z m90 -121 c0 -25 -29 -40 -57
-29 -43 16 -24 46 25 40 6 -1 12 3 12 9 0 6 5 8 10 5 6 -3 10 -15 10 -25z"/>
<path d="M3167 894 c-3 -5 -2 -25 2 -44 6 -29 3 -38 -15 -52 -28 -22 -35 -52
-19 -75 18 -24 150 -27 150 -4 0 12 -13 14 -58 12 -45 -2 -58 1 -63 14 -9 22
8 37 64 56 41 14 47 20 45 42 -1 15 1 26 5 24 4 -1 8 1 10 6 5 17 1 27 -14 27
-8 0 -12 -4 -9 -10 3 -6 -1 -7 -9 -4 -18 7 -20 -4 -6 -26 7 -11 5 -17 -8 -22
-29 -12 -42 -9 -42 10 0 23 -25 58 -33 46z"/>
<path d="M2111 863 c-3 -29 -4 -88 -2 -135 1 -38 28 -36 36 2 7 31 25 42 25
15 0 -34 111 -49 118 -15 2 12 -7 14 -44 11 l-47 -3 6 31 c5 24 3 31 -9 31 -8
0 -17 -7 -20 -15 -5 -11 -10 -13 -19 -5 -6 5 -15 6 -20 2 -7 -7 0 52 11 91 4
12 0 17 -13 17 -13 0 -20 -9 -22 -27z"/>
<path d="M3404 881 c-13 -13 0 -21 34 -21 l37 0 -30 -24 c-16 -13 -42 -27 -57
-30 -48 -10 -33 -29 18 -23 33 3 43 2 35 -6 -15 -15 -14 -52 2 -66 8 -6 29
-12 48 -13 26 -2 34 1 37 15 3 15 -1 18 -15 13 -11 -3 -28 1 -39 9 -19 15 -19
15 5 35 13 11 36 20 52 20 20 0 29 5 29 16 0 13 -9 15 -45 12 -48 -5 -49 2 -7
36 20 16 21 21 9 27 -14 8 -104 8 -113 0z"/>
<path d="M3660 882 c0 -15 11 -20 58 -26 37 -4 63 6 49 20 -11 11 -107 16
-107 6z"/>
<path d="M2173 857 c-7 -11 -2 -15 22 -17 48 -5 85 1 85 13 0 15 -98 19 -107
4z"/>
<path d="M3695 834 c-5 -1 -22 -5 -37 -8 -16 -4 -28 -13 -28 -21 0 -11 7 -14
23 -10 35 9 81 13 95 8 6 -3 12 -15 12 -28 0 -22 -10 -29 -74 -49 -15 -5 -16
-9 -6 -21 10 -13 17 -13 48 1 47 19 60 32 66 66 5 30 -14 57 -42 59 -9 0 -24
2 -32 3 -8 2 -19 2 -25 0z"/>
</g>
</svg>
